<svg width="128" height="128" viewBox="0 0 128 128" fill="none" xmlns="http://www.w3.org/2000/svg">

<g id="ntree 2">
<path id="rect2" d="M102 4H26C13.8497 4 4 13.8497 4 26V102C4 114.15 13.8497 124 26 124H102C114.15 124 124 114.15 124 102V26C124 13.8497 114.15 4 102 4Z" fill="url(#paint0_linear_3311_2)"/>
<g id="g9">
<path id="rect4" d="M22.4718 68.1201H19.2361C18.3501 68.1201 17.6318 68.6467 17.6318 69.2963V106.105C17.6318 106.754 18.3501 107.281 19.2361 107.281H22.4718C23.3578 107.281 24.0761 106.754 24.0761 106.105V69.2963C24.0761 68.6467 23.3578 68.1201 22.4718 68.1201Z" fill="#7AF0CD"/>
<path id="rect5" d="M33.2123 61H29.9766C29.0906 61 28.3723 61.5266 28.3723 62.1761V106.105C28.3723 106.754 29.0906 107.281 29.9766 107.281H33.2123C34.0983 107.281 34.8166 106.754 34.8166 106.105V62.1761C34.8166 61.5266 34.0983 61 33.2123 61Z" fill="#7AF0CD"/>
<path id="rect6" d="M43.9527 71.6802H40.7171C39.831 71.6802 39.1128 72.2068 39.1128 72.8563V106.105C39.1128 106.754 39.831 107.281 40.7171 107.281H43.9527C44.8388 107.281 45.5571 106.754 45.5571 106.105V72.8563C45.5571 72.2068 44.8388 71.6802 43.9527 71.6802Z" fill="#7AF0CD"/>
<path id="rect7" d="M54.6932 64.5601H51.4576C50.5715 64.5601 49.8533 65.0866 49.8533 65.7362V106.105C49.8533 106.754 50.5715 107.281 51.4576 107.281H54.6932C55.5793 107.281 56.2975 106.754 56.2975 106.105V65.7362C56.2975 65.0866 55.5793 64.5601 54.6932 64.5601Z" fill="#7AF0CD"/>
<path id="rect8" d="M65.4337 78.8004H62.1981C61.312 78.8004 60.5938 79.3269 60.5938 79.9765V106.105C60.5938 106.754 61.312 107.281 62.1981 107.281H65.4337C66.3198 107.281 67.038 106.754 67.038 106.105V79.9765C67.038 79.3269 66.3198 78.8004 65.4337 78.8004Z" fill="#7AF0CD"/>
<path id="rect9" d="M76.1742 85.9205H72.9386C72.0525 85.9205 71.3342 86.4471 71.3342 87.0966V106.105C71.3342 106.754 72.0525 107.281 72.9386 107.281H76.1742C77.0603 107.281 77.7785 106.754 77.7785 106.105V87.0966C77.7785 86.4471 77.0603 85.9205 76.1742 85.9205Z" fill="#7AF0CD"/>
</g>
<g id="g12">
<path id="rect10" d="M86.9147 96.6007H83.6791C82.793 96.6007 82.0747 97.1273 82.0747 97.7768V106.105C82.0747 106.754 82.793 107.281 83.6791 107.281H86.9147C87.8007 107.281 88.519 106.754 88.519 106.105V97.7768C88.519 97.1273 87.8007 96.6007 86.9147 96.6007Z" fill="#7AF0CD"/>
<path id="rect11" d="M97.6552 100.161H94.4195C93.5335 100.161 92.8152 100.687 92.8152 101.337V106.105C92.8152 106.754 93.5335 107.281 94.4195 107.281H97.6552C98.5412 107.281 99.2595 106.754 99.2595 106.105V101.337C99.2595 100.687 98.5412 100.161 97.6552 100.161Z" fill="#7AF0CD"/>
<path id="rect12" d="M108.396 103.721H105.16C104.274 103.721 103.556 104.247 103.556 104.897V106.105C103.556 106.754 104.274 107.281 105.16 107.281H108.396C109.282 107.281 110 106.754 110 106.105V104.897C110 104.247 109.282 103.721 108.396 103.721Z" fill="#7AF0CD"/>
</g>
<g id="svg12-3">
<path id="circle6" opacity="0.9" d="M65.6 96C83.2731 96 97.6 81.6731 97.6 64C97.6 46.3269 83.2731 32 65.6 32C47.9269 32 33.6 46.3269 33.6 64C33.6 81.6731 47.9269 96 65.6 96Z" fill="url(#paint1_radial_3311_2)" fill-opacity="0.4" stroke="#A6E3A1" stroke-width="0.5"/>
<g id="g10" opacity="0.35">
<path id="circle7" d="M65.6 92C81.064 92 93.6 79.464 93.6 64C93.6 48.536 81.064 36 65.6 36C50.136 36 37.6 48.536 37.6 64C37.6 79.464 50.136 92 65.6 92Z" stroke="#CDD6F4" stroke-width="0.4"/>
<path id="circle8" d="M65.6 88C78.8548 88 89.6 77.2548 89.6 64C89.6 50.7452 78.8548 40 65.6 40C52.3452 40 41.6 50.7452 41.6 64C41.6 77.2548 52.3452 88 65.6 88Z" stroke="#CDD6F4" stroke-width="0.4"/>
<path id="circle9" d="M65.6 84C76.6457 84 85.6 75.0457 85.6 64C85.6 52.9543 76.6457 44 65.6 44C54.5543 44 45.6 52.9543 45.6 64C45.6 75.0457 54.5543 84 65.6 84Z" stroke="#CDD6F4" stroke-width="0.4"/>
<path id="circle10" d="M65.6 80C74.4366 80 81.6 72.8366 81.6 64C81.6 55.1634 74.4366 48 65.6 48C56.7634 48 49.6 55.1634 49.6 64C49.6 72.8366 56.7634 80 65.6 80Z" stroke="#CDD6F4" stroke-width="0.4"/>
</g>
<path id="circle11" d="M65.6 73C70.5706 73 74.6 68.9706 74.6 64C74.6 59.0294 70.5706 55 65.6 55C60.6294 55 56.6 59.0294 56.6 64C56.6 68.9706 60.6294 73 65.6 73Z" fill="#89B4FA" fill-opacity="0.2"/>
<path id="circle12" d="M65.6 65.6C66.4837 65.6 67.2 64.8836 67.2 64C67.2 63.1163 66.4837 62.4 65.6 62.4C64.7164 62.4 64 63.1163 64 64C64 64.8836 64.7164 65.6 65.6 65.6Z" fill="#1E1E2E"/>
</g>
<path id="ntree" d="M21.9809 55V36.712C22.8929 36.448 24.0689 36.208 25.5089 35.992C26.9489 35.752 28.4609 35.632 30.0449 35.632C32.2049 35.632 33.8849 36.004 35.0849 36.748C36.2849 37.468 37.1249 38.476 37.6049 39.772C38.0849 41.068 38.3249 42.58 38.3249 44.308V55H32.9609V44.956C32.9609 43.804 32.8649 42.88 32.6729 42.184C32.4809 41.488 32.1449 40.984 31.6649 40.672C31.2089 40.36 30.5609 40.204 29.7209 40.204C29.3369 40.204 28.9289 40.228 28.4969 40.276C28.0649 40.3 27.6809 40.336 27.3449 40.384V55H21.9809ZM50.4882 55.432C48.5442 55.432 47.0202 55.096 45.9162 54.424C44.8362 53.728 44.0802 52.768 43.6482 51.544C43.2162 50.32 43.0002 48.892 43.0002 47.26V31.348L48.3642 30.484V36.064H54.8082V40.528H48.3642V47.188C48.3642 47.932 48.4482 48.592 48.6162 49.168C48.7842 49.72 49.0842 50.152 49.5162 50.464C49.9482 50.752 50.5602 50.896 51.3522 50.896C51.9282 50.896 52.5162 50.848 53.1162 50.752C53.7402 50.632 54.3042 50.476 54.8082 50.284L55.5642 54.46C54.9162 54.724 54.1962 54.952 53.4042 55.144C52.6122 55.336 51.6402 55.432 50.4882 55.432ZM59.1763 55V37.072C60.1363 36.736 61.2643 36.424 62.5603 36.136C63.8803 35.824 65.3443 35.668 66.9523 35.668C67.3363 35.668 67.8043 35.704 68.3563 35.776C68.9323 35.824 69.4963 35.896 70.0483 35.992C70.6243 36.088 71.1043 36.22 71.4883 36.388L70.5883 40.816C70.1083 40.696 69.5443 40.576 68.8963 40.456C68.2483 40.312 67.5523 40.24 66.8083 40.24C66.4723 40.24 66.0643 40.276 65.5843 40.348C65.1283 40.396 64.7803 40.456 64.5403 40.528V55H59.1763ZM83.1202 55.504C80.8402 55.504 78.9562 55.072 77.4682 54.208C76.0042 53.344 74.9122 52.168 74.1922 50.68C73.4722 49.192 73.1122 47.524 73.1122 45.676C73.1122 43.444 73.5442 41.584 74.4082 40.096C75.2962 38.584 76.4242 37.456 77.7922 36.712C79.1842 35.944 80.6482 35.56 82.1842 35.56C83.9842 35.56 85.5322 35.932 86.8282 36.676C88.1242 37.396 89.1202 38.476 89.8162 39.916C90.5362 41.356 90.8962 43.144 90.8962 45.28C90.8962 45.592 90.8842 45.94 90.8602 46.324C90.8362 46.684 90.8122 47.008 90.7882 47.296H78.6202C78.7402 48.4 79.2562 49.276 80.1682 49.924C81.0802 50.572 82.3042 50.896 83.8402 50.896C84.8242 50.896 85.7842 50.812 86.7202 50.644C87.6802 50.452 88.4602 50.224 89.0602 49.96L89.7802 54.316C89.2042 54.604 88.2802 54.868 87.0082 55.108C85.7602 55.372 84.4642 55.504 83.1202 55.504ZM78.6202 43.624H85.7122C85.6882 43.024 85.5562 42.448 85.3162 41.896C85.0762 41.344 84.7042 40.888 84.2002 40.528C83.7202 40.168 83.0722 39.988 82.2562 39.988C81.4402 39.988 80.7802 40.168 80.2762 40.528C79.7962 40.864 79.4242 41.308 79.1602 41.86C78.8962 42.412 78.7162 43 78.6202 43.624ZM104.144 55.504C101.864 55.504 99.9796 55.072 98.4916 54.208C97.0276 53.344 95.9356 52.168 95.2156 50.68C94.4956 49.192 94.1356 47.524 94.1356 45.676C94.1356 43.444 94.5676 41.584 95.4316 40.096C96.3196 38.584 97.4476 37.456 98.8156 36.712C100.208 35.944 101.672 35.56 103.208 35.56C105.008 35.56 106.556 35.932 107.852 36.676C109.148 37.396 110.144 38.476 110.84 39.916C111.56 41.356 111.92 43.144 111.92 45.28C111.92 45.592 111.908 45.94 111.884 46.324C111.86 46.684 111.836 47.008 111.812 47.296H99.6436C99.7636 48.4 100.28 49.276 101.192 49.924C102.104 50.572 103.328 50.896 104.864 50.896C105.848 50.896 106.808 50.812 107.744 50.644C108.704 50.452 109.484 50.224 110.084 49.96L110.804 54.316C110.228 54.604 109.304 54.868 108.032 55.108C106.784 55.372 105.488 55.504 104.144 55.504ZM99.6436 43.624H106.736C106.712 43.024 106.58 42.448 106.34 41.896C106.1 41.344 105.728 40.888 105.224 40.528C104.744 40.168 104.096 39.988 103.28 39.988C102.464 39.988 101.804 40.168 101.3 40.528C100.82 40.864 100.448 41.308 100.184 41.86C99.9196 42.412 99.7396 43 99.6436 43.624Z" fill="#89B4FA"/>
</g>
<defs>
<linearGradient id="paint0_linear_3311_2" x1="4" y1="4" x2="4" y2="124" gradientUnits="userSpaceOnUse">
<stop stop-color="#131D2A"/>
<stop offset="1" stop-color="#090D12"/>
</linearGradient>
<radialGradient id="paint1_radial_3311_2" cx="0" cy="0" r="1" gradientUnits="userSpaceOnUse" gradientTransform="translate(65.6 64) scale(32.25)">
<stop stop-color="#313244"/>
<stop offset="0.8" stop-color="#181825"/>
<stop offset="1" stop-color="#1E1E2E"/>
</radialGradient>
</defs>
</svg>
