<svg width="1024" height="1024" viewBox="0 0 1024 1024" fill="none" xmlns="http://www.w3.org/2000/svg">
<mask id="mask0_3327_33" style="mask-type:alpha" maskUnits="userSpaceOnUse" x="0" y="0" width="1024" height="1024">
<rect width="1024" height="1024" fill="url(#paint0_linear_3327_33)"/>
</mask>
<g mask="url(#mask0_3327_33)">
<rect width="1024" height="1024" rx="80" fill="url(#paint1_radial_3327_33)"/>
<path d="M512 1024C373.933 1024 253.124 979.394 149.573 890.182C49.8577 797.091 0 671.03 0 512C0 352.97 49.8577 228.848 149.573 139.636C253.124 46.5454 373.933 0 512 0C650.067 0 768.959 46.5454 868.674 139.636C972.225 228.848 1024 352.97 1024 512C1024 671.03 972.225 797.091 868.674 890.182C768.959 979.394 650.067 1024 512 1024Z" fill="#5D5FEF" fill-opacity="0.2"/>
<path d="M512 1024C794.77 1024 1024 794.77 1024 512C1024 229.23 794.77 0 512 0C229.23 0 0 229.23 0 512C0 794.77 229.23 1024 512 1024Z" fill="url(#paint2_radial_3327_33)" fill-opacity="0.5"/>
<path d="M512 0.200195C794.659 0.200195 1023.8 229.341 1023.8 512C1023.8 794.659 794.659 1023.8 512 1023.8C229.341 1023.8 0.200195 794.659 0.200195 512C0.200228 229.341 229.341 0.200228 512 0.200195Z" stroke="#5D5FEF" stroke-opacity="0.5" stroke-width="0.4"/>
<path opacity="0.9" d="M509.772 983.543C770.324 983.543 981.543 772.324 981.543 511.772C981.543 251.219 770.324 40 509.772 40C249.219 40 38 251.219 38 511.772C38 772.324 249.219 983.543 509.772 983.543Z" stroke="#A6E3A1" stroke-width="0.8"/>
<path d="M510.538 72.1802C752.635 72.1803 948.895 268.44 948.895 510.538C948.895 752.635 752.635 948.895 510.538 948.895C268.44 948.895 72.1803 752.635 72.1802 510.538C72.1802 268.44 268.44 72.1802 510.538 72.1802Z" stroke="#5D5FEF"/>
<path d="M510 155.5C711.308 155.5 874.5 318.692 874.5 520C874.5 721.308 711.308 884.5 510 884.5C308.692 884.5 145.5 721.308 145.5 520C145.5 318.692 308.692 155.5 510 155.5Z" stroke="#5D5FEF"/>
<path d="M512 742.4C639.247 742.4 742.4 639.247 742.4 512C742.4 384.754 639.247 281.6 512 281.6C384.754 281.6 281.6 384.754 281.6 512C281.6 639.247 384.754 742.4 512 742.4Z" stroke="#8AFF80" stroke-width="0.5"/>
<path opacity="0.9" d="M512.584 780.167C661.471 780.167 782.167 659.471 782.167 510.584C782.167 361.697 661.471 241 512.584 241C363.697 241 243 361.697 243 510.584C243 659.471 363.697 780.167 512.584 780.167Z" stroke="#A6E3A1"/>
<path d="M512 812C431.101 812 360.315 785.864 299.64 733.591C241.213 679.045 212 605.182 212 512C212 418.818 241.213 346.091 299.64 293.818C360.315 239.273 431.101 212 512 212C592.899 212 662.562 239.273 720.989 293.818C781.663 346.091 812 418.818 812 512C812 605.182 781.663 679.045 720.989 733.591C662.562 785.864 592.899 812 512 812Z" fill="#8AFF80" fill-opacity="0.4"/>
<path d="M502 662C461.551 662 426.157 648.932 395.82 622.795C366.607 595.523 352 558.591 352 512C352 465.409 366.607 429.045 395.82 402.909C426.157 375.636 461.551 362 502 362C542.449 362 577.281 375.636 606.494 402.909C636.831 429.045 652 465.409 652 512C652 558.591 636.831 595.523 606.494 622.795C577.281 648.932 542.449 662 502 662Z" fill="#181825" fill-opacity="0.8"/>
<path d="M59.8109 695V481.64C70.451 478.56 84.171 475.76 100.971 473.24C117.771 470.44 135.411 469.04 153.891 469.04C179.091 469.04 198.691 473.38 212.691 482.06C226.691 490.46 236.491 502.22 242.091 517.34C247.691 532.46 250.491 550.1 250.491 570.26V695H187.911V577.82C187.911 564.38 186.791 553.6 184.551 545.48C182.311 537.36 178.391 531.48 172.791 527.84C167.471 524.2 159.911 522.38 150.111 522.38C145.631 522.38 140.871 522.66 135.831 523.22C130.791 523.5 126.311 523.92 122.391 524.48V695H59.8109Z" fill="white"/>
<path d="M358.795 700.04C336.115 700.04 318.335 696.12 305.455 688.28C292.855 680.16 284.035 668.96 278.995 654.68C273.955 640.4 271.435 623.74 271.435 604.7V419.06L334.015 408.98V474.08H409.195V526.16H334.015V603.86C334.015 612.54 334.995 620.24 336.955 626.96C338.915 633.4 342.415 638.44 347.455 642.08C352.495 645.44 359.635 647.12 368.875 647.12C375.595 647.12 382.455 646.56 389.455 645.44C396.735 644.04 403.315 642.22 409.195 639.98L418.015 688.7C410.455 691.78 402.055 694.44 392.815 696.68C383.575 698.92 372.235 700.04 358.795 700.04ZM426.556 695V485.84C437.756 481.92 450.916 478.28 466.036 474.92C481.436 471.28 498.516 469.46 517.276 469.46C521.756 469.46 527.216 469.88 533.656 470.72C540.376 471.28 546.956 472.12 553.396 473.24C560.116 474.36 565.716 475.9 570.196 477.86L559.696 529.52C554.096 528.12 547.516 526.72 539.956 525.32C532.396 523.64 524.276 522.8 515.596 522.8C511.676 522.8 506.916 523.22 501.316 524.06C495.996 524.62 491.936 525.32 489.136 526.16V695H426.556ZM672.302 700.88C645.702 700.88 623.722 695.84 606.362 685.76C589.282 675.68 576.542 661.96 568.142 644.6C559.742 627.24 555.542 607.78 555.542 586.22C555.542 560.18 560.582 538.48 570.662 521.12C581.022 503.48 594.182 490.32 610.142 481.64C626.382 472.68 643.462 468.2 661.382 468.2C682.382 468.2 700.442 472.54 715.562 481.22C730.682 489.62 742.302 502.22 750.422 519.02C758.822 535.82 763.022 556.68 763.022 581.6C763.022 585.24 762.882 589.3 762.602 593.78C762.322 597.98 762.042 601.76 761.762 605.12H619.802C621.202 618 627.222 628.22 637.862 635.78C648.502 643.34 662.782 647.12 680.702 647.12C692.182 647.12 703.382 646.14 714.302 644.18C725.502 641.94 734.602 639.28 741.602 636.2L750.002 687.02C743.282 690.38 732.502 693.46 717.662 696.26C703.102 699.34 687.982 700.88 672.302 700.88ZM619.802 562.28H702.542C702.262 555.28 700.722 548.56 697.922 542.12C695.122 535.68 690.782 530.36 684.902 526.16C679.302 521.96 671.742 519.86 662.222 519.86C652.702 519.86 645.002 521.96 639.122 526.16C633.522 530.08 629.182 535.26 626.102 541.7C623.022 548.14 620.922 555 619.802 562.28ZM883.976 700.88C857.376 700.88 835.396 695.84 818.036 685.76C800.956 675.68 788.216 661.96 779.816 644.6C771.416 627.24 767.216 607.78 767.216 586.22C767.216 560.18 772.256 538.48 782.336 521.12C792.696 503.48 805.856 490.32 821.816 481.64C838.056 472.68 855.136 468.2 873.056 468.2C894.056 468.2 912.116 472.54 927.236 481.22C942.356 489.62 953.976 502.22 962.096 519.02C970.496 535.82 974.696 556.68 974.696 581.6C974.696 585.24 974.556 589.3 974.276 593.78C973.996 597.98 973.716 601.76 973.436 605.12H831.476C832.876 618 838.896 628.22 849.536 635.78C860.176 643.34 874.456 647.12 892.376 647.12C903.856 647.12 915.056 646.14 925.976 644.18C937.176 641.94 946.276 639.28 953.276 636.2L961.676 687.02C954.956 690.38 944.176 693.46 929.336 696.26C914.776 699.34 899.656 700.88 883.976 700.88ZM831.476 562.28H914.216C913.936 555.28 912.396 548.56 909.596 542.12C906.796 535.68 902.456 530.36 896.576 526.16C890.976 521.96 883.416 519.86 873.896 519.86C864.376 519.86 856.676 521.96 850.796 526.16C845.196 530.08 840.856 535.26 837.776 541.7C834.696 548.14 832.596 555 831.476 562.28Z" fill="#8AFF80"/>
</g>
<defs>
<linearGradient id="paint0_linear_3327_33" x1="512" y1="0" x2="512" y2="1024" gradientUnits="userSpaceOnUse">
<stop stop-color="#1E1E2E"/>
<stop offset="1" stop-color="#616194"/>
</linearGradient>
<radialGradient id="paint1_radial_3327_33" cx="0" cy="0" r="1" gradientUnits="userSpaceOnUse" gradientTransform="translate(512 512) rotate(90) scale(512)">
<stop offset="0.495192" stop-color="#616194"/>
<stop offset="1" stop-color="#8AFF80"/>
</radialGradient>
<radialGradient id="paint2_radial_3327_33" cx="0" cy="0" r="1" gradientUnits="userSpaceOnUse" gradientTransform="translate(512 512) scale(516)">
<stop stop-color="#313244"/>
<stop offset="0.8" stop-color="#181825"/>
<stop offset="1" stop-color="#1E1E2E"/>
</radialGradient>
</defs>
</svg>
